<mxfile host="app.diagrams.net" agent="Mozilla/5.0 (Windows NT 10.0; Win64; x64) AppleWebKit/537.36 (KHTML, like Gecko) Chrome/136.0.0.0 Safari/537.36 Edg/136.0.0.0" version="27.1.1">
  <diagram name="Seite-1" id="pDeOWPPxI5jYld__HU4e">
    <mxGraphModel dx="925" dy="545" grid="1" gridSize="10" guides="1" tooltips="1" connect="1" arrows="1" fold="1" page="1" pageScale="1" pageWidth="827" pageHeight="1169" math="0" shadow="0">
      <root>
        <mxCell id="0" />
        <mxCell id="1" parent="0" />
        <mxCell id="RdKSiXnqm0Wh8BdGKsHr-1" value="Temperatur" style="rounded=0;whiteSpace=wrap;html=1;" vertex="1" parent="1">
          <mxGeometry x="300" y="180" width="120" height="60" as="geometry" />
        </mxCell>
        <mxCell id="RdKSiXnqm0Wh8BdGKsHr-2" value="" style="endArrow=classic;html=1;rounded=0;exitX=0.25;exitY=0;exitDx=0;exitDy=0;" edge="1" parent="1" source="RdKSiXnqm0Wh8BdGKsHr-1" target="RdKSiXnqm0Wh8BdGKsHr-6">
          <mxGeometry width="50" height="50" relative="1" as="geometry">
            <mxPoint x="256" y="75" as="sourcePoint" />
            <mxPoint x="276" y="110" as="targetPoint" />
            <Array as="points" />
          </mxGeometry>
        </mxCell>
        <mxCell id="RdKSiXnqm0Wh8BdGKsHr-6" value="Niedrig, für Haltbarkeit der Bauteile" style="rounded=1;whiteSpace=wrap;html=1;" vertex="1" parent="1">
          <mxGeometry x="180" y="50" width="120" height="60" as="geometry" />
        </mxCell>
        <mxCell id="RdKSiXnqm0Wh8BdGKsHr-7" value="" style="endArrow=classic;html=1;rounded=0;exitX=0.75;exitY=0;exitDx=0;exitDy=0;" edge="1" parent="1" source="RdKSiXnqm0Wh8BdGKsHr-1" target="RdKSiXnqm0Wh8BdGKsHr-8">
          <mxGeometry width="50" height="50" relative="1" as="geometry">
            <mxPoint x="406" y="170" as="sourcePoint" />
            <mxPoint x="456" y="110" as="targetPoint" />
            <Array as="points" />
          </mxGeometry>
        </mxCell>
        <mxCell id="RdKSiXnqm0Wh8BdGKsHr-8" value="Hoch genug, für effiziente chemische Prozesse beim Laden" style="rounded=1;whiteSpace=wrap;html=1;" vertex="1" parent="1">
          <mxGeometry x="420" y="50" width="120" height="60" as="geometry" />
        </mxCell>
        <mxCell id="RdKSiXnqm0Wh8BdGKsHr-9" value="Größe und Bauraum" style="rounded=0;whiteSpace=wrap;html=1;" vertex="1" parent="1">
          <mxGeometry x="300" y="470" width="120" height="60" as="geometry" />
        </mxCell>
        <mxCell id="RdKSiXnqm0Wh8BdGKsHr-10" value="" style="endArrow=classic;html=1;rounded=0;exitX=0.25;exitY=0;exitDx=0;exitDy=0;" edge="1" parent="1" source="RdKSiXnqm0Wh8BdGKsHr-9" target="RdKSiXnqm0Wh8BdGKsHr-11">
          <mxGeometry width="50" height="50" relative="1" as="geometry">
            <mxPoint x="256" y="365" as="sourcePoint" />
            <mxPoint x="276" y="400" as="targetPoint" />
            <Array as="points" />
          </mxGeometry>
        </mxCell>
        <mxCell id="RdKSiXnqm0Wh8BdGKsHr-11" value="Kompakt für Mobilität" style="rounded=1;whiteSpace=wrap;html=1;" vertex="1" parent="1">
          <mxGeometry x="180" y="340" width="120" height="60" as="geometry" />
        </mxCell>
        <mxCell id="RdKSiXnqm0Wh8BdGKsHr-12" value="" style="endArrow=classic;html=1;rounded=0;exitX=0.75;exitY=0;exitDx=0;exitDy=0;" edge="1" parent="1" source="RdKSiXnqm0Wh8BdGKsHr-9" target="RdKSiXnqm0Wh8BdGKsHr-13">
          <mxGeometry width="50" height="50" relative="1" as="geometry">
            <mxPoint x="406" y="460" as="sourcePoint" />
            <mxPoint x="456" y="400" as="targetPoint" />
            <Array as="points" />
          </mxGeometry>
        </mxCell>
        <mxCell id="RdKSiXnqm0Wh8BdGKsHr-13" value="Groß genug für Kühlraum und Platz für leistungsfähige Komponenten" style="rounded=1;whiteSpace=wrap;html=1;" vertex="1" parent="1">
          <mxGeometry x="420" y="340" width="120" height="60" as="geometry" />
        </mxCell>
        <mxCell id="RdKSiXnqm0Wh8BdGKsHr-14" value="" style="endArrow=none;html=1;rounded=0;" edge="1" parent="1">
          <mxGeometry width="50" height="50" relative="1" as="geometry">
            <mxPoint x="60" y="280" as="sourcePoint" />
            <mxPoint x="690" y="280" as="targetPoint" />
          </mxGeometry>
        </mxCell>
        <mxCell id="RdKSiXnqm0Wh8BdGKsHr-15" value="" style="endArrow=none;html=1;rounded=0;" edge="1" parent="1">
          <mxGeometry width="50" height="50" relative="1" as="geometry">
            <mxPoint x="60" y="570" as="sourcePoint" />
            <mxPoint x="690" y="570" as="targetPoint" />
          </mxGeometry>
        </mxCell>
        <mxCell id="RdKSiXnqm0Wh8BdGKsHr-16" value="Ladeprozess" style="rounded=0;whiteSpace=wrap;html=1;" vertex="1" parent="1">
          <mxGeometry x="300" y="730" width="120" height="60" as="geometry" />
        </mxCell>
        <mxCell id="RdKSiXnqm0Wh8BdGKsHr-17" value="" style="endArrow=classic;html=1;rounded=0;exitX=0.25;exitY=0;exitDx=0;exitDy=0;" edge="1" parent="1" source="RdKSiXnqm0Wh8BdGKsHr-16" target="RdKSiXnqm0Wh8BdGKsHr-18">
          <mxGeometry width="50" height="50" relative="1" as="geometry">
            <mxPoint x="256" y="625" as="sourcePoint" />
            <mxPoint x="276" y="660" as="targetPoint" />
            <Array as="points" />
          </mxGeometry>
        </mxCell>
        <mxCell id="RdKSiXnqm0Wh8BdGKsHr-18" value="Vollautomatisch für einfachen Betrieb" style="rounded=1;whiteSpace=wrap;html=1;" vertex="1" parent="1">
          <mxGeometry x="180" y="600" width="120" height="60" as="geometry" />
        </mxCell>
        <mxCell id="RdKSiXnqm0Wh8BdGKsHr-19" value="" style="endArrow=classic;html=1;rounded=0;exitX=0.75;exitY=0;exitDx=0;exitDy=0;" edge="1" parent="1" source="RdKSiXnqm0Wh8BdGKsHr-16" target="RdKSiXnqm0Wh8BdGKsHr-20">
          <mxGeometry width="50" height="50" relative="1" as="geometry">
            <mxPoint x="406" y="720" as="sourcePoint" />
            <mxPoint x="456" y="660" as="targetPoint" />
            <Array as="points" />
          </mxGeometry>
        </mxCell>
        <mxCell id="RdKSiXnqm0Wh8BdGKsHr-20" value="Flexibel und individuell steuerbar" style="rounded=1;whiteSpace=wrap;html=1;" vertex="1" parent="1">
          <mxGeometry x="420" y="600" width="120" height="60" as="geometry" />
        </mxCell>
        <mxCell id="RdKSiXnqm0Wh8BdGKsHr-21" value="" style="endArrow=none;html=1;rounded=0;" edge="1" parent="1">
          <mxGeometry width="50" height="50" relative="1" as="geometry">
            <mxPoint x="60" y="860" as="sourcePoint" />
            <mxPoint x="690" y="860" as="targetPoint" />
          </mxGeometry>
        </mxCell>
        <mxCell id="RdKSiXnqm0Wh8BdGKsHr-22" value="Ladezeit" style="rounded=0;whiteSpace=wrap;html=1;" vertex="1" parent="1">
          <mxGeometry x="300" y="1030" width="120" height="60" as="geometry" />
        </mxCell>
        <mxCell id="RdKSiXnqm0Wh8BdGKsHr-23" value="" style="endArrow=classic;html=1;rounded=0;exitX=0.25;exitY=0;exitDx=0;exitDy=0;" edge="1" parent="1" source="RdKSiXnqm0Wh8BdGKsHr-22" target="RdKSiXnqm0Wh8BdGKsHr-24">
          <mxGeometry width="50" height="50" relative="1" as="geometry">
            <mxPoint x="256" y="925" as="sourcePoint" />
            <mxPoint x="276" y="960" as="targetPoint" />
            <Array as="points" />
          </mxGeometry>
        </mxCell>
        <mxCell id="RdKSiXnqm0Wh8BdGKsHr-24" value="Kurz, um Zeit zu sparen" style="rounded=1;whiteSpace=wrap;html=1;" vertex="1" parent="1">
          <mxGeometry x="180" y="900" width="120" height="60" as="geometry" />
        </mxCell>
        <mxCell id="RdKSiXnqm0Wh8BdGKsHr-25" value="" style="endArrow=classic;html=1;rounded=0;exitX=0.75;exitY=0;exitDx=0;exitDy=0;" edge="1" parent="1" source="RdKSiXnqm0Wh8BdGKsHr-22" target="RdKSiXnqm0Wh8BdGKsHr-26">
          <mxGeometry width="50" height="50" relative="1" as="geometry">
            <mxPoint x="406" y="1020" as="sourcePoint" />
            <mxPoint x="456" y="960" as="targetPoint" />
            <Array as="points" />
          </mxGeometry>
        </mxCell>
        <mxCell id="RdKSiXnqm0Wh8BdGKsHr-26" value="Lang, um den Akku schonend zu laden" style="rounded=1;whiteSpace=wrap;html=1;" vertex="1" parent="1">
          <mxGeometry x="420" y="900" width="120" height="60" as="geometry" />
        </mxCell>
      </root>
    </mxGraphModel>
  </diagram>
</mxfile>
